# xmcd CD database file
#
# Track frame offsets:
#	187
#	13162
#	29362
#	46912
#	63487
#	83062
#	104662
#	120412
#	138562
#	151762
#	170512
#	191437
#
# Disc length: 2890 seconds
#
# Revision: 0
# Processed by: cddbd v1.5PL3 Copyright (c) Steve Scherf et al.
# Submitted via: CDex 1.50
#
DISCID=990b480c
DTITLE=小椋佳 - テーマソングス ドラマ編
DYEAR=1900
DGENRE=フォーク (日本)
TTITLE0=この胸の高なりを
TTITLE1=海辺の恋
TTITLE2=めまい
TTITLE3=俺たちの旅
TTITLE4=心の襞
TTITLE5=憧れ遊び
TTITLE6=愛しき日々
TTITLE7=遙かな轍
TTITLE8=想い出して下さい
TTITLE9=熱い瞬間
TTITLE10=いつの日か旅する者よ
TTITLE11=あなたが美しいのは
EXTD=
EXTT0=
EXTT1=
EXTT2=
EXTT3=
EXTT4=
EXTT5=
EXTT6=
EXTT7=
EXTT8=
EXTT9=
EXTT10=
EXTT11=
PLAYORDER=
